<?xml version="1.0" standalone="no"?>
<!DOCTYPE svg PUBLIC "-//W3C//DTD SVG 20010904//EN"
 "http://www.w3.org/TR/2001/REC-SVG-20010904/DTD/svg10.dtd">
<svg version="1.0" xmlns="http://www.w3.org/2000/svg"
 width="84.000000pt" height="84.000000pt" viewBox="0 0 84.000000 84.000000"
 preserveAspectRatio="xMidYMid meet">
<metadata>
Created by potrace 1.11, written by Peter Selinger 2001-2013
</metadata>
<g transform="translate(0.000000,84.000000) scale(0.100000,-0.100000)"
fill="#000000" stroke="none">
<path d="M212 618 c-17 -17 -17 -379 0 -396 16 -16 150 -16 166 0 8 8 12 47
12 110 l0 98 -45 0 c-41 0 -45 -2 -45 -25 0 -16 6 -25 15 -25 12 0 15 -13 15
-60 l0 -60 -35 0 -35 0 0 160 0 160 35 0 c33 0 35 -2 35 -35 0 -32 2 -35 30
-35 29 0 30 1 30 48 0 26 -5 53 -12 60 -7 7 -41 12 -83 12 -42 0 -76 -5 -83
-12z"/>
<path d="M460 420 l0 -210 30 0 29 0 3 92 3 93 48 3 c38 3 47 7 47 22 0 15 -9
19 -47 22 l-48 3 -3 68 -3 67 61 0 c57 0 60 1 60 25 0 25 -1 25 -90 25 l-90 0
0 -210z"/>
</g>
</svg>
